<svg class="gofastr-chart-svg" viewBox="0 0 720.00 420.00" width="100%" role="img" aria-label="Drift" data-domain-x="-3,3" data-domain-y="-3.5,3.5" aria-description="Server-rendered chart (chart-v1)."><style>
.gofastr-chart-svg{--gcc-bg:var(--color-background,#fff);--gcc-text:var(--color-text,#1c2024);--gcc-muted:var(--color-text-muted,#5b6470);--gcc-border:var(--color-border,#e3e6ea);--gcc-primary:var(--color-primary,#4f46e5);--gcc-info:var(--color-info,#1d4ed8);--gcc-success:var(--color-success,#166534);--gcc-accent:var(--color-accent,#7c3aed);--gcc-danger:var(--color-danger,#b91c1c);font-family:var(--font-body,system-ui,-apple-system,sans-serif);font-size:12px;display:block}
.gofastr-chart-svg text{fill:var(--gcc-text)}
.gofastr-chart-title{font-size:15px;font-weight:600}
.gofastr-chart-grid line{stroke:var(--gcc-border);stroke-width:1;stroke-opacity:.6}
.gofastr-chart-axis-line{stroke:var(--gcc-muted);stroke-width:1}
.gofastr-chart-tick{stroke:var(--gcc-muted);stroke-width:1}
.gofastr-chart-tick-label{font-size:11px;fill:var(--gcc-muted)}
.gofastr-chart-axis-label{font-size:11px;fill:var(--gcc-muted)}
.gofastr-chart-legend-text{font-size:12px}
.gofastr-chart-legend-swatch{fill:currentColor;stroke:none}
.gofastr-chart-line{fill:none;stroke:currentColor;stroke-width:2.5;stroke-linejoin:round;stroke-linecap:round}
.gofastr-chart-area{fill:currentColor;fill-opacity:.18;stroke:none}
.gofastr-chart-bar{fill:currentColor;stroke:none}
.gofastr-chart-dot{fill:currentColor;stroke:var(--gcc-bg);stroke-width:1.5}
.gofastr-chart-s0{color:var(--gcc-primary)}
.gofastr-chart-s1{color:var(--gcc-info)}
.gofastr-chart-s2{color:var(--gcc-success)}
.gofastr-chart-s3{color:var(--gcc-accent)}
.gofastr-chart-s4{color:var(--gcc-danger)}
.gofastr-chart-s5{color:color-mix(in srgb,var(--gcc-info) 55%,var(--gcc-text))}
.gofastr-chart-s6{color:color-mix(in srgb,var(--gcc-primary) 45%,var(--gcc-text))}
.gofastr-chart-s7{color:color-mix(in srgb,var(--gcc-success) 45%,var(--gcc-text))}
.gofastr-chart-s8{color:color-mix(in srgb,var(--gcc-danger) 50%,var(--gcc-text))}
.gofastr-chart-s9{color:color-mix(in srgb,var(--gcc-accent) 50%,var(--gcc-text))}
.gofastr-chart-s10{color:color-mix(in srgb,var(--gcc-info) 35%,var(--gcc-text))}
.gofastr-chart-s11{color:color-mix(in srgb,var(--gcc-primary) 25%,var(--gcc-text))}
</style><title>Drift</title><text class="gofastr-chart-title" x="56.00" y="33.00">Drift</text><g class="gofastr-chart-legend" data-legend><g class="gofastr-chart-legend-item gofastr-chart-s0" data-legend-item data-legend-name="delta" transform="translate(635.00 22.00)"><rect class="gofastr-chart-legend-swatch" width="12" height="12" rx="2"/><text class="gofastr-chart-legend-text" x="18" y="11">delta</text></g></g><g class="gofastr-chart-grid" aria-hidden="true"><line x1="56.00" y1="388.00" x2="702.00" y2="388.00"/><line x1="56.00" y1="363.29" x2="702.00" y2="363.29"/><line x1="56.00" y1="338.57" x2="702.00" y2="338.57"/><line x1="56.00" y1="313.86" x2="702.00" y2="313.86"/><line x1="56.00" y1="289.14" x2="702.00" y2="289.14"/><line x1="56.00" y1="264.43" x2="702.00" y2="264.43"/><line x1="56.00" y1="239.71" x2="702.00" y2="239.71"/><line x1="56.00" y1="215.00" x2="702.00" y2="215.00"/><line x1="56.00" y1="190.29" x2="702.00" y2="190.29"/><line x1="56.00" y1="165.57" x2="702.00" y2="165.57"/><line x1="56.00" y1="140.86" x2="702.00" y2="140.86"/><line x1="56.00" y1="116.14" x2="702.00" y2="116.14"/><line x1="56.00" y1="91.43" x2="702.00" y2="91.43"/><line x1="56.00" y1="66.71" x2="702.00" y2="66.71"/><line x1="56.00" y1="42.00" x2="702.00" y2="42.00"/><line x1="56.00" y1="42.00" x2="56.00" y2="388.00"/><line x1="109.83" y1="42.00" x2="109.83" y2="388.00"/><line x1="163.67" y1="42.00" x2="163.67" y2="388.00"/><line x1="217.50" y1="42.00" x2="217.50" y2="388.00"/><line x1="271.33" y1="42.00" x2="271.33" y2="388.00"/><line x1="325.17" y1="42.00" x2="325.17" y2="388.00"/><line x1="379.00" y1="42.00" x2="379.00" y2="388.00"/><line x1="432.83" y1="42.00" x2="432.83" y2="388.00"/><line x1="486.67" y1="42.00" x2="486.67" y2="388.00"/><line x1="540.50" y1="42.00" x2="540.50" y2="388.00"/><line x1="594.33" y1="42.00" x2="594.33" y2="388.00"/><line x1="648.17" y1="42.00" x2="648.17" y2="388.00"/><line x1="702.00" y1="42.00" x2="702.00" y2="388.00"/></g><g class="gofastr-chart-series gofastr-chart-s0" data-series="delta" aria-label="delta"><path class="gofastr-chart-area" d="M56.00,388.00 L163.67,264.43 L271.33,190.29 L379.00,106.26 L486.67,234.77 L594.33,42.00 L702.00,165.57 L702.00,215.00 L56.00,215.00 Z"/><polyline class="gofastr-chart-line" points="56.00,388.00 163.67,264.43 271.33,190.29 379.00,106.26 486.67,234.77 594.33,42.00 702.00,165.57"/><circle class="gofastr-chart-dot" cx="56.00" cy="388.00" r="3.50"/><circle class="gofastr-chart-dot" cx="163.67" cy="264.43" r="3.50"/><circle class="gofastr-chart-dot" cx="271.33" cy="190.29" r="3.50"/><circle class="gofastr-chart-dot" cx="379.00" cy="106.26" r="3.50"/><circle class="gofastr-chart-dot" cx="486.67" cy="234.77" r="3.50"/><circle class="gofastr-chart-dot" cx="594.33" cy="42.00" r="3.50"/><circle class="gofastr-chart-dot" cx="702.00" cy="165.57" r="3.50"/></g><g class="gofastr-chart-axis gofastr-chart-axis-x" data-axis="x"><line class="gofastr-chart-axis-line" x1="56.00" y1="388.00" x2="702.00" y2="388.00"/><line class="gofastr-chart-tick" x1="56.00" y1="388.00" x2="56.00" y2="393.00"/><text class="gofastr-chart-tick-label" x="56.00" y="404.00" text-anchor="middle">-3.0</text><line class="gofastr-chart-tick" x1="109.83" y1="388.00" x2="109.83" y2="393.00"/><text class="gofastr-chart-tick-label" x="109.83" y="404.00" text-anchor="middle">-2.5</text><line class="gofastr-chart-tick" x1="163.67" y1="388.00" x2="163.67" y2="393.00"/><text class="gofastr-chart-tick-label" x="163.67" y="404.00" text-anchor="middle">-2.0</text><line class="gofastr-chart-tick" x1="217.50" y1="388.00" x2="217.50" y2="393.00"/><text class="gofastr-chart-tick-label" x="217.50" y="404.00" text-anchor="middle">-1.5</text><line class="gofastr-chart-tick" x1="271.33" y1="388.00" x2="271.33" y2="393.00"/><text class="gofastr-chart-tick-label" x="271.33" y="404.00" text-anchor="middle">-1.0</text><line class="gofastr-chart-tick" x1="325.17" y1="388.00" x2="325.17" y2="393.00"/><text class="gofastr-chart-tick-label" x="325.17" y="404.00" text-anchor="middle">-0.5</text><line class="gofastr-chart-tick" x1="379.00" y1="388.00" x2="379.00" y2="393.00"/><text class="gofastr-chart-tick-label" x="379.00" y="404.00" text-anchor="middle">0.0</text><line class="gofastr-chart-tick" x1="432.83" y1="388.00" x2="432.83" y2="393.00"/><text class="gofastr-chart-tick-label" x="432.83" y="404.00" text-anchor="middle">0.5</text><line class="gofastr-chart-tick" x1="486.67" y1="388.00" x2="486.67" y2="393.00"/><text class="gofastr-chart-tick-label" x="486.67" y="404.00" text-anchor="middle">1.0</text><line class="gofastr-chart-tick" x1="540.50" y1="388.00" x2="540.50" y2="393.00"/><text class="gofastr-chart-tick-label" x="540.50" y="404.00" text-anchor="middle">1.5</text><line class="gofastr-chart-tick" x1="594.33" y1="388.00" x2="594.33" y2="393.00"/><text class="gofastr-chart-tick-label" x="594.33" y="404.00" text-anchor="middle">2.0</text><line class="gofastr-chart-tick" x1="648.17" y1="388.00" x2="648.17" y2="393.00"/><text class="gofastr-chart-tick-label" x="648.17" y="404.00" text-anchor="middle">2.5</text><line class="gofastr-chart-tick" x1="702.00" y1="388.00" x2="702.00" y2="393.00"/><text class="gofastr-chart-tick-label" x="702.00" y="404.00" text-anchor="middle">3.0</text></g><g class="gofastr-chart-axis gofastr-chart-axis-y" data-axis="y"><line class="gofastr-chart-axis-line" x1="56.00" y1="42.00" x2="56.00" y2="388.00"/><line class="gofastr-chart-tick" x1="51.00" y1="388.00" x2="56.00" y2="388.00"/><text class="gofastr-chart-tick-label" x="48.00" y="391.50" text-anchor="end">-3.5</text><line class="gofastr-chart-tick" x1="51.00" y1="363.29" x2="56.00" y2="363.29"/><text class="gofastr-chart-tick-label" x="48.00" y="366.79" text-anchor="end">-3.0</text><line class="gofastr-chart-tick" x1="51.00" y1="338.57" x2="56.00" y2="338.57"/><text class="gofastr-chart-tick-label" x="48.00" y="342.07" text-anchor="end">-2.5</text><line class="gofastr-chart-tick" x1="51.00" y1="313.86" x2="56.00" y2="313.86"/><text class="gofastr-chart-tick-label" x="48.00" y="317.36" text-anchor="end">-2.0</text><line class="gofastr-chart-tick" x1="51.00" y1="289.14" x2="56.00" y2="289.14"/><text class="gofastr-chart-tick-label" x="48.00" y="292.64" text-anchor="end">-1.5</text><line class="gofastr-chart-tick" x1="51.00" y1="264.43" x2="56.00" y2="264.43"/><text class="gofastr-chart-tick-label" x="48.00" y="267.93" text-anchor="end">-1.0</text><line class="gofastr-chart-tick" x1="51.00" y1="239.71" x2="56.00" y2="239.71"/><text class="gofastr-chart-tick-label" x="48.00" y="243.21" text-anchor="end">-0.5</text><line class="gofastr-chart-tick" x1="51.00" y1="215.00" x2="56.00" y2="215.00"/><text class="gofastr-chart-tick-label" x="48.00" y="218.50" text-anchor="end">0.0</text><line class="gofastr-chart-tick" x1="51.00" y1="190.29" x2="56.00" y2="190.29"/><text class="gofastr-chart-tick-label" x="48.00" y="193.79" text-anchor="end">0.5</text><line class="gofastr-chart-tick" x1="51.00" y1="165.57" x2="56.00" y2="165.57"/><text class="gofastr-chart-tick-label" x="48.00" y="169.07" text-anchor="end">1.0</text><line class="gofastr-chart-tick" x1="51.00" y1="140.86" x2="56.00" y2="140.86"/><text class="gofastr-chart-tick-label" x="48.00" y="144.36" text-anchor="end">1.5</text><line class="gofastr-chart-tick" x1="51.00" y1="116.14" x2="56.00" y2="116.14"/><text class="gofastr-chart-tick-label" x="48.00" y="119.64" text-anchor="end">2.0</text><line class="gofastr-chart-tick" x1="51.00" y1="91.43" x2="56.00" y2="91.43"/><text class="gofastr-chart-tick-label" x="48.00" y="94.93" text-anchor="end">2.5</text><line class="gofastr-chart-tick" x1="51.00" y1="66.71" x2="56.00" y2="66.71"/><text class="gofastr-chart-tick-label" x="48.00" y="70.21" text-anchor="end">3.0</text><line class="gofastr-chart-tick" x1="51.00" y1="42.00" x2="56.00" y2="42.00"/><text class="gofastr-chart-tick-label" x="48.00" y="45.50" text-anchor="end">3.5</text></g></svg>